# xmcd
# 
# Track frame offsets:
#     150
#     91208
#     165767
# 
# Disc length: 2475
# 
# Revision: 1
# Processed by: cddbd v1.5.2PL0 Copyright (c) Steve Scherf et al.
# Submitted via: BonkEnc v1.0
# 
DISCID=1109a903
DTITLE=Friedrich Gulda - Joe Zawinul  - Music for two Pianos
DYEAR=2006
DGENRE=Jazz
TTITLE0=Johannes Brahms: Variationen uber ein Thema von Joseph Haydn, op.56b
TTITLE1=Friedrich Gulda: Variations for two Pianos and Band
TTITLE2=Joe Zawinul: Volcano for Hire
EXTD=YEAR: 2006
EXTT0=
EXTT1=
EXTT2=
PLAYORDER=
